<svg width="213" height="213" viewBox="0 0 213 213" fill="none" xmlns="http://www.w3.org/2000/svg">
<path d="M45.882 137.831L46.374 124.957H32.68L28.662 137.831H13L34.074 78.791H61.134L61.462 137.831H45.882ZM42.52 93.141L36.042 113.969H46.784L47.686 93.141H42.52Z" fill="#96C895"/>
<path d="M111.302 130.886C106.934 136.281 99.8227 138.979 89.9673 138.979C82.1499 138.979 76.7379 137.284 73.7313 133.895C71.6539 131.49 70.6152 128.128 70.6152 123.809C70.6152 121.95 70.8066 119.955 71.1893 117.823L74.5513 98.963C75.4451 93.9377 77.187 89.8253 79.7769 86.6259C84.3148 81.02 91.4563 78.217 101.201 78.217C107.543 78.217 112.353 79.5837 115.633 82.317C118.913 84.9957 120.553 88.6857 120.553 93.387C120.553 95.5737 120.225 97.7604 119.569 99.947C118.968 102.079 118.367 103.664 117.765 104.703L116.863 106.343H102.349C104.153 104.266 105.055 101.314 105.055 97.487C105.055 95.4644 104.536 93.879 103.497 92.731C102.459 91.5284 100.928 90.927 98.9053 90.927C95.6769 90.927 93.2148 91.9737 91.5189 94.0669C90.3145 95.5537 89.4966 97.5684 89.0653 100.111L86.1953 116.675C85.9219 118.096 85.7852 119.49 85.7852 120.857C85.7852 124.465 87.9446 126.269 92.2633 126.269C95.2959 126.269 97.6201 125.272 99.236 123.277C100.387 121.856 101.179 119.929 101.611 117.495H116.371L115.961 119.873C115.198 124.32 113.645 127.991 111.302 130.886Z" fill="#96C895"/>
<path d="M148.143 78.791L156.917 107.081C156.917 107.081 157.876 105.642 159.362 103.413C162.979 97.9882 169.715 87.8839 173.332 82.459C174.818 80.23 175.777 78.791 175.777 78.791H191.275L180.861 137.831H166.019L171.923 104.539L159.295 124.383H148.553L142.977 104.539L137.073 137.831H122.313L132.727 78.791H148.143Z" fill="#96C895"/>
<path d="M196.31 72.5739H180.812L175.777 78.791H191.275L196.31 72.5739Z" fill="#96C895"/>
<path d="M180.812 72.5739L178.366 76.2418L173.332 82.4589L175.777 78.791L180.812 72.5739Z" fill="#96C895"/>
<path d="M185.896 131.614L196.31 72.5739L191.275 78.791L180.861 137.831L185.896 131.614Z" fill="#96C895"/>
<path d="M178.366 76.2418L164.397 97.196L159.362 103.413L173.332 82.459L178.366 76.2418Z" fill="#96C895"/>
<path d="M153.178 72.5739H137.762L132.727 78.791H148.143L153.178 72.5739Z" fill="#96C895"/>
<path d="M161.952 100.864L153.178 72.5739L148.143 78.791L156.917 107.081L161.952 100.864Z" fill="#96C895"/>
<path d="M164.397 97.196L161.952 100.864L156.917 107.081L159.362 103.413L164.397 97.196Z" fill="#96C895"/>
<path d="M164.33 118.166L176.958 98.3219L171.923 104.539L159.295 124.383L164.33 118.166Z" fill="#96C895"/>
<path d="M176.958 98.3219L171.054 131.614L166.019 137.831L171.923 104.539L176.958 98.3219Z" fill="#96C895"/>
<path d="M125.588 87.1699C125.588 82.4685 123.948 78.7785 120.668 76.0999L115.633 82.317C118.913 84.9957 120.553 88.6857 120.553 93.387L125.588 87.1699Z" fill="#96C895"/>
<path d="M120.668 76.0999C117.388 73.3665 112.577 71.9999 106.236 71.9999L101.201 78.217C107.543 78.217 112.353 79.5837 115.633 82.317L120.668 76.0999Z" fill="#96C895"/>
<path d="M148.012 98.3219L153.588 118.166L148.553 124.383L142.977 104.539L148.012 98.3219Z" fill="#96C895"/>
<path d="M171.054 131.614H185.896L180.861 137.831H166.019L171.054 131.614Z" fill="#96C895"/>
<path d="M124.604 93.7299C125.26 91.5432 125.588 89.3565 125.588 87.1699L120.553 93.387C120.553 95.5737 120.225 97.7604 119.569 99.947L124.604 93.7299Z" fill="#96C895"/>
<path d="M153.588 118.166H164.33L159.295 124.383H148.553L153.588 118.166Z" fill="#96C895"/>
<path d="M137.762 72.5739L127.348 131.614L122.313 137.831L132.727 78.791L137.762 72.5739Z" fill="#96C895"/>
<path d="M122.8 98.4859C123.401 97.4472 124.002 95.8619 124.604 93.7299L119.569 99.947C118.968 102.079 118.367 103.664 117.765 104.703L122.8 98.4859Z" fill="#96C895"/>
<path d="M142.108 131.614L148.012 98.3219L142.977 104.539L137.073 137.831L142.108 131.614Z" fill="#96C895"/>
<path d="M106.236 71.9999C96.4908 71.9999 89.3494 74.8028 84.8114 80.4087L79.7814 86.6203C84.3195 81.0181 91.4595 78.217 101.201 78.217L106.236 71.9999Z" fill="#96C895"/>
<path d="M103.94 84.7099C105.963 84.7099 107.493 85.3112 108.532 86.5139L103.497 92.7311C102.459 91.5284 100.928 90.9271 98.9053 90.9271L103.94 84.7099Z" fill="#96C895"/>
<path d="M121.898 100.126L122.8 98.4859L117.765 104.703L116.863 106.343L121.898 100.126Z" fill="#96C895"/>
<path d="M108.532 86.5139C109.571 87.6619 110.09 89.2472 110.09 91.2699L105.055 97.487C105.055 95.4644 104.536 93.879 103.497 92.731L108.532 86.5139Z" fill="#96C895"/>
<path d="M96.5535 87.8498C98.2493 85.7565 100.711 84.7099 103.94 84.7099L98.9052 90.9271C95.6768 90.9271 93.2147 91.9737 91.5189 94.067L96.5535 87.8498Z" fill="#96C895"/>
<path d="M107.384 100.126H121.898L116.863 106.343H102.349L107.384 100.126Z" fill="#96C895"/>
<path d="M110.09 91.2699C110.09 95.0966 109.188 98.0486 107.384 100.126L102.743 105.857C102.617 106.024 102.486 106.186 102.349 106.343L102.743 105.857C104.285 103.814 105.055 101.024 105.055 97.4871L110.09 91.2699Z" fill="#96C895"/>
<path d="M94.0999 93.8939C94.5309 91.3528 95.3481 89.3391 96.5513 87.8526L91.519 94.067C90.3145 95.5537 89.4967 97.5684 89.0653 100.111L94.0999 93.8939Z" fill="#96C895"/>
<path d="M120.996 113.656L121.406 111.278L116.371 117.495L115.961 119.873L120.996 113.656Z" fill="#96C895"/>
<path d="M121.406 111.278H106.646L101.611 117.495H116.371L121.406 111.278Z" fill="#96C895"/>
<path d="M84.8115 80.4087C82.2216 83.6081 80.4797 87.7205 79.5858 92.7459L74.5513 98.963C75.4451 93.9377 77.187 89.8253 79.7769 86.6259L84.8115 80.4087Z" fill="#96C895"/>
<path d="M127.348 131.614H142.108L137.073 137.831H122.313L127.348 131.614Z" fill="#96C895"/>
<path d="M116.336 124.669C118.679 121.774 120.232 118.103 120.996 113.656L115.961 119.873C115.198 124.32 113.644 127.991 111.302 130.886L116.336 124.669Z" fill="#96C895"/>
<path d="M91.2299 110.458L94.0999 93.8939L89.0653 100.111L86.1953 116.675L91.2299 110.458Z" fill="#96C895"/>
<path d="M106.646 111.278C106.214 113.712 105.422 115.639 104.271 117.06L99.2385 123.274C100.389 121.853 101.179 119.927 101.611 117.495L106.646 111.278Z" fill="#96C895"/>
<path d="M66.1685 72.5739H39.1085L34.074 78.791H61.134L66.1685 72.5739Z" fill="#96C895"/>
<path d="M104.271 117.06C102.655 119.055 100.33 120.052 97.2979 120.052L92.2633 126.269C95.2959 126.269 97.6202 125.272 99.2361 123.277L104.271 117.06Z" fill="#96C895"/>
<path d="M90.8198 114.64C90.8198 113.273 90.9565 111.879 91.2298 110.458L86.1953 116.675C85.9219 118.096 85.7853 119.49 85.7853 120.857L90.8198 114.64Z" fill="#96C895"/>
<path d="M79.5858 92.7458L76.2238 111.606L71.1892 117.823L74.5512 98.963L79.5858 92.7458Z" fill="#96C895"/>
<path d="M97.2978 120.052C92.9792 120.052 90.8198 118.248 90.8198 114.64L85.7853 120.857C85.7853 124.465 87.9446 126.269 92.2633 126.269L97.2978 120.052Z" fill="#96C895"/>
<path d="M95.0018 132.762C104.854 132.762 111.964 130.066 116.331 124.675L111.302 130.886C106.934 136.281 99.8228 138.979 89.9673 138.979L95.0018 132.762Z" fill="#96C895"/>
<path d="M47.5546 86.9239H52.7206L47.686 93.1411H42.52L47.5546 86.9239Z" fill="#96C895"/>
<path d="M66.4966 131.614L66.1686 72.5739L61.134 78.791L61.462 137.831L66.4966 131.614Z" fill="#96C895"/>
<path d="M76.2238 111.606C75.8411 113.738 75.6498 115.733 75.6498 117.592L70.6152 123.809C70.6152 121.95 70.8066 119.955 71.1892 117.823L76.2238 111.606Z" fill="#96C895"/>
<path d="M52.7206 86.9239L51.8186 107.752L46.7841 113.969L47.6861 93.1411L52.7206 86.9239Z" fill="#96C895"/>
<path d="M78.7658 127.678C81.7724 131.067 87.1844 132.762 95.0018 132.762L89.9672 138.979C82.1499 138.979 76.7379 137.284 73.7312 133.895L78.7658 127.678Z" fill="#96C895"/>
<path d="M75.6498 117.592C75.6498 121.911 76.6885 125.273 78.7658 127.678L73.7312 133.895C71.6539 131.49 70.6152 128.128 70.6152 123.809L75.6498 117.592Z" fill="#96C895"/>
<path d="M41.0766 107.752L47.5546 86.9239L42.52 93.1411L36.042 113.969L41.0766 107.752Z" fill="#96C895"/>
<path d="M51.8186 107.752H41.0766L36.042 113.969H46.784L51.8186 107.752Z" fill="#96C895"/>
<path d="M39.1086 72.5739L18.0346 131.614L13 137.831L34.074 78.791L39.1086 72.5739Z" fill="#96C895"/>
<path d="M37.7146 118.74H51.4086L46.3741 124.957H32.6801L37.7146 118.74Z" fill="#96C895"/>
<path d="M51.4085 118.74L50.9165 131.614L45.882 137.831L46.374 124.957L51.4085 118.74Z" fill="#96C895"/>
<path d="M50.9165 131.614H66.4965L61.462 137.831H45.882L50.9165 131.614Z" fill="#96C895"/>
<path d="M33.6966 131.614L37.7146 118.74L32.68 124.957L28.662 137.831L33.6966 131.614Z" fill="#96C895"/>
<path d="M18.0346 131.614H33.6966L28.662 137.831H13L18.0346 131.614Z" fill="#96C895"/>
<path d="M52.7778 132L53.2698 119.126H39.5758L35.5578 132H19.8958L40.9698 72.96H68.0298L68.3578 132H52.7778ZM49.4158 87.31L42.9378 108.138H53.6798L54.5818 87.31H49.4158ZM96.8631 133.148C89.0457 133.148 83.6337 131.453 80.6271 128.064C78.5497 125.659 77.5111 122.297 77.5111 117.978C77.5111 116.119 77.7024 114.124 78.0851 111.992L81.4471 93.132C83.9071 79.3013 92.7904 72.386 108.097 72.386C114.438 72.386 119.249 73.7527 122.529 76.486C125.809 79.1647 127.449 82.8547 127.449 87.556C127.449 89.7427 127.121 91.9293 126.465 94.116C125.864 96.248 125.262 97.8333 124.661 98.872L123.759 100.512H109.245C111.049 98.4347 111.951 95.4827 111.951 91.656C111.951 89.6333 111.432 88.048 110.393 86.9C109.354 85.6973 107.824 85.096 105.801 85.096C100.28 85.096 96.9997 88.1573 95.9611 94.28L93.0911 110.844C92.8177 112.265 92.6811 113.659 92.6811 115.026C92.6811 118.634 94.8404 120.438 99.1591 120.438C104.352 120.438 107.468 117.513 108.507 111.664H123.267L122.857 114.042C120.67 126.779 112.006 133.148 96.8631 133.148ZM155.039 72.96L163.813 101.25L182.673 72.96H198.171L187.757 132H172.915L178.819 98.708L166.191 118.552H155.449L149.873 98.708L143.969 132H129.209L139.623 72.96H155.039Z" fill="#3B6124"/>
</svg>
